<?xml version="1.0" encoding="utf-8"?>
<!-- Generator: Adobe Illustrator 27.9.0, SVG Export Plug-In . SVG Version: 6.00 Build 0)  -->
<svg version="1.1" id="Слой_1" xmlns="http://www.w3.org/2000/svg" xmlns:xlink="http://www.w3.org/1999/xlink" x="0px" y="0px"
	 viewBox="0 0 3000 3000" style="enable-background:new 0 0 3000 3000;" xml:space="preserve">
<style type="text/css">
	.st0{fill:#FF4B00;}
	.st1{fill:#FF4B00;}
	.st2{fill:#FF4B00;}
	.st3{fill:none;stroke:#FF4B00;stroke-width:10;stroke-miterlimit:10;}
	.st4{fill:#FF4B00;}
</style>
<g>
	<path class="st2" d="M1320.32,1822.52V879.63l-76.89,33.44l-0.01,873.07l-366.16-633.45l-435.33,967.69l723.97-314.67l77.51,134.1
		l569.43-247.6v-83.86L1320.32,1822.52z M593.82,1970.26l291.99-649.13l241.48,417.7L593.82,1970.26z"/>
	<polygon class="st2" points="2121.84,1473.97 2121.84,953.55 2044.94,986.98 2044.94,1591.26 2308.08,1476.84 2308.08,2007.38 
		2384.98,1973.79 2384.98,1359.54 	"/>
	<polygon class="st2" points="1968.03,1373.81 1968.03,1455.14 1968.03,1792.43 1243.42,2107.65 1243.42,2023.73 1889.74,1742.37 
		1889.74,1491.72 1551.09,1638.98 1551.09,1201.75 1889.74,1054.48 1889.74,1138.01 1627.95,1252.16 1627.99,1255.31 
		1627.99,1521.43 	"/>
	<polygon class="st2" points="1474.12,1153.27 1397.22,1186.73 1397.22,1709 1474.12,1675.5 	"/>
	<polygon class="st2" points="1397.22,1102.85 1473.98,1069.39 1474.19,985.43 1397.22,1018.91 	"/>
</g>
</svg>
